<?xml version="1.0" encoding="UTF-8"?>
<svg xmlns="http://www.w3.org/2000/svg" xmlns:xlink="http://www.w3.org/1999/xlink" viewBox="0 0 512 512" width="512px" height="512px">
<g id="surface79993405">
<path style=" stroke:none;fill-rule:nonzero;fill:rgb(18.431373%,20.784314%,25.882354%);fill-opacity:1;" d="M 456 4 L 268 4 C 261.199219 4 256 9.199219 256 16 L 256 73.601562 C 256 82.398438 260.800781 90.398438 268 94.398438 C 275.601562 98.800781 284.398438 98.800781 291.601562 94.398438 C 298.800781 90 307.199219 88 315.601562 88 C 328.800781 88 341.199219 93.199219 350.398438 102.800781 C 359.601562 112.398438 364.398438 124.800781 363.601562 138.398438 C 362.398438 163.199219 342 183.199219 317.601562 184 C 308.398438 184.398438 299.601562 182 291.601562 177.601562 C 284.398438 173.199219 275.199219 173.199219 268 177.601562 C 260.398438 182 256 190 256 198.398438 L 256 256 L 314.398438 256 L 314 256 C 322.800781 256 330.800781 260.800781 334.800781 268 C 339.199219 275.601562 339.199219 284.398438 334.800781 291.601562 C 330.398438 299.601562 328 308.398438 328.398438 317.601562 C 329.199219 342.398438 349.199219 362.398438 374 363.601562 C 387.199219 364.398438 400 359.601562 409.601562 350.398438 C 419.199219 341.199219 424.398438 328.800781 424.398438 315.601562 C 424.398438 307.199219 422 298.800781 418 291.601562 C 413.601562 284.398438 413.601562 275.199219 418 268 C 422.398438 260.398438 430.398438 256 438.800781 256 L 484 256 L 484 456 C 484 471.601562 471.601562 484 456 484 L 256 484 L 256 438.398438 C 256 429.601562 251.199219 421.601562 244 417.601562 C 236.398438 413.199219 227.601562 413.199219 220.398438 417.601562 C 213.199219 422 204.800781 424 196.398438 424 C 183.199219 424 170.800781 418.800781 161.601562 409.199219 C 152.398438 399.601562 147.601562 387.199219 148.398438 373.601562 C 149.601562 348.800781 170 328.800781 194.398438 328 C 203.601562 327.601562 212.398438 330 220.398438 334.398438 C 227.601562 338.800781 236.800781 338.800781 244 334.398438 C 251.601562 330 256 322 256 313.601562 L 256 256 L 197.601562 256.398438 C 189.199219 256.398438 181.601562 251.601562 177.199219 244.398438 C 172.800781 236.800781 172.800781 228 177.199219 220.800781 C 181.601562 213.601562 183.601562 205.199219 183.601562 196.800781 C 183.601562 183.601562 178.398438 171.199219 168.800781 162 C 159.199219 152.800781 146.800781 148 133.199219 148.800781 C 108.398438 150 88.398438 170.398438 87.601562 194.800781 C 87.199219 204 89.601562 212.800781 94 220.800781 C 98.398438 228 98.398438 237.199219 94 244.398438 C 90.398438 250.800781 84 255.199219 76.398438 256.398438 L 16 256 C 9.199219 256 4 261.199219 4 268 L 4 456 C 4 484.800781 27.199219 508 56 508 L 456 508 C 484.800781 508 508 484.800781 508 456 L 508 56 C 508 27.199219 484.800781 4 456 4 Z M 456 4 "/>
</g>
</svg>
