<?xml version="1.0" encoding="UTF-8"?>
<svg xmlns="http://www.w3.org/2000/svg" xmlns:xlink="http://www.w3.org/1999/xlink" viewBox="0 0 256 256" width="256px" height="256px">
<g id="surface79994209">
<path style=" stroke:none;fill-rule:nonzero;fill:rgb(18.431373%,20.784314%,25.882354%);fill-opacity:1;" d="M 228 2 L 134 2 C 130.601562 2 128 4.601562 128 8 L 128 36.800781 C 128 41.199219 130.398438 45.199219 134 47.199219 C 137.800781 49.398438 142.199219 49.398438 145.800781 47.199219 C 149.398438 45 153.601562 44 157.800781 44 C 164.398438 44 170.601562 46.601562 175.199219 51.398438 C 179.800781 56.199219 182.199219 62.398438 181.800781 69.199219 C 181.199219 81.601562 171 91.601562 158.800781 92 C 154.199219 92.199219 149.800781 91 145.800781 88.800781 C 142.199219 86.601562 137.601562 86.601562 134 88.800781 C 130.199219 91 128 95 128 99.199219 L 128 128 L 157.199219 128 L 157 128 C 161.398438 128 165.398438 130.398438 167.398438 134 C 169.601562 137.800781 169.601562 142.199219 167.398438 145.800781 C 165.199219 149.800781 164 154.199219 164.199219 158.800781 C 164.601562 171.199219 174.601562 181.199219 187 181.800781 C 193.601562 182.199219 200 179.800781 204.800781 175.199219 C 209.601562 170.601562 212.199219 164.398438 212.199219 157.800781 C 212.199219 153.601562 211 149.398438 209 145.800781 C 206.800781 142.199219 206.800781 137.601562 209 134 C 211.199219 130.199219 215.199219 128 219.398438 128 L 242 128 L 242 228 C 242 235.800781 235.800781 242 228 242 L 128 242 L 128 219.199219 C 128 214.800781 125.601562 210.800781 122 208.800781 C 118.199219 206.601562 113.800781 206.601562 110.199219 208.800781 C 106.601562 211 102.398438 212 98.199219 212 C 91.601562 212 85.398438 209.398438 80.800781 204.601562 C 76.199219 199.800781 73.800781 193.601562 74.199219 186.800781 C 74.800781 174.398438 85 164.398438 97.199219 164 C 101.800781 163.800781 106.199219 165 110.199219 167.199219 C 113.800781 169.398438 118.398438 169.398438 122 167.199219 C 125.800781 165 128 161 128 156.800781 L 128 128 L 98.800781 128.199219 C 94.601562 128.199219 90.800781 125.800781 88.601562 122.199219 C 86.398438 118.398438 86.398438 114 88.601562 110.398438 C 90.800781 106.800781 91.800781 102.601562 91.800781 98.398438 C 91.800781 91.800781 89.199219 85.601562 84.398438 81 C 79.601562 76.398438 73.398438 74 66.601562 74.398438 C 54.199219 75 44.199219 85.199219 43.800781 97.398438 C 43.601562 102 44.800781 106.398438 47 110.398438 C 49.199219 114 49.199219 118.601562 47 122.199219 C 45.199219 125.398438 42 127.601562 38.199219 128.199219 L 8 128 C 4.601562 128 2 130.601562 2 134 L 2 228 C 2 242.398438 13.601562 254 28 254 L 228 254 C 242.398438 254 254 242.398438 254 228 L 254 28 C 254 13.601562 242.398438 2 228 2 Z M 228 2 "/>
</g>
</svg>
