<?xml version="1.0" encoding="UTF-8"?>
<svg xmlns="http://www.w3.org/2000/svg" xmlns:xlink="http://www.w3.org/1999/xlink" viewBox="0 0 64 64" width="64px" height="64px">
<g id="surface80059098">
<path style=" stroke:none;fill-rule:nonzero;fill:rgb(18.431373%,20.784314%,25.882354%);fill-opacity:1;" d="M 57 0.5 L 33.5 0.5 C 32.648438 0.5 32 1.148438 32 2 L 32 9.199219 C 32 10.300781 32.601562 11.300781 33.5 11.800781 C 34.449219 12.351562 35.550781 12.351562 36.449219 11.800781 C 37.351562 11.25 38.398438 11 39.449219 11 C 41.101562 11 42.648438 11.648438 43.800781 12.851562 C 44.949219 14.050781 45.550781 15.601562 45.449219 17.300781 C 45.300781 20.398438 42.75 22.898438 39.699219 23 C 38.550781 23.050781 37.449219 22.75 36.449219 22.199219 C 35.550781 21.648438 34.398438 21.648438 33.5 22.199219 C 32.550781 22.75 32 23.75 32 24.800781 L 32 32 L 39.300781 32 L 39.25 32 C 40.351562 32 41.351562 32.601562 41.851562 33.5 C 42.398438 34.449219 42.398438 35.550781 41.851562 36.449219 C 41.300781 37.449219 41 38.550781 41.050781 39.699219 C 41.148438 42.800781 43.648438 45.300781 46.75 45.449219 C 48.398438 45.550781 50 44.949219 51.199219 43.800781 C 52.398438 42.648438 53.050781 41.101562 53.050781 39.449219 C 53.050781 38.398438 52.75 37.351562 52.25 36.449219 C 51.699219 35.550781 51.699219 34.398438 52.25 33.5 C 52.800781 32.550781 53.800781 32 54.851562 32 L 60.5 32 L 60.5 57 C 60.5 58.949219 58.949219 60.5 57 60.5 L 32 60.5 L 32 54.800781 C 32 53.699219 31.398438 52.699219 30.5 52.199219 C 29.550781 51.648438 28.449219 51.648438 27.550781 52.199219 C 26.648438 52.75 25.601562 53 24.550781 53 C 22.898438 53 21.351562 52.351562 20.199219 51.148438 C 19.050781 49.949219 18.449219 48.398438 18.550781 46.699219 C 18.699219 43.601562 21.25 41.101562 24.300781 41 C 25.449219 40.949219 26.550781 41.25 27.550781 41.800781 C 28.449219 42.351562 29.601562 42.351562 30.5 41.800781 C 31.449219 41.25 32 40.25 32 39.199219 L 32 32 L 24.699219 32.050781 C 23.648438 32.050781 22.699219 31.449219 22.148438 30.550781 C 21.601562 29.601562 21.601562 28.5 22.148438 27.601562 C 22.699219 26.699219 22.949219 25.648438 22.949219 24.601562 C 22.949219 22.949219 22.300781 21.398438 21.101562 20.25 C 19.898438 19.101562 18.351562 18.5 16.648438 18.601562 C 13.550781 18.75 11.050781 21.300781 10.949219 24.351562 C 10.898438 25.5 11.199219 26.601562 11.75 27.601562 C 12.300781 28.5 12.300781 29.648438 11.75 30.550781 C 11.300781 31.351562 10.5 31.898438 9.550781 32.050781 L 2 32 C 1.148438 32 0.5 32.648438 0.5 33.5 L 0.5 57 C 0.5 60.601562 3.398438 63.5 7 63.5 L 57 63.5 C 60.601562 63.5 63.5 60.601562 63.5 57 L 63.5 7 C 63.5 3.398438 60.601562 0.5 57 0.5 Z M 57 0.5 "/>
</g>
</svg>
