<?xml version="1.0" encoding="UTF-8"?>
<svg xmlns="http://www.w3.org/2000/svg" xmlns:xlink="http://www.w3.org/1999/xlink" viewBox="0 0 128 128" width="128px" height="128px">
<g id="surface80058474">
<path style=" stroke:none;fill-rule:nonzero;fill:rgb(18.431373%,20.784314%,25.882354%);fill-opacity:1;" d="M 114 1 L 67 1 C 65.300781 1 64 2.300781 64 4 L 64 18.398438 C 64 20.601562 65.199219 22.601562 67 23.601562 C 68.898438 24.699219 71.101562 24.699219 72.898438 23.601562 C 74.699219 22.5 76.800781 22 78.898438 22 C 82.199219 22 85.300781 23.300781 87.601562 25.699219 C 89.898438 28.101562 91.101562 31.199219 90.898438 34.601562 C 90.601562 40.800781 85.5 45.800781 79.398438 46 C 77.101562 46.101562 74.898438 45.5 72.898438 44.398438 C 71.101562 43.300781 68.800781 43.300781 67 44.398438 C 65.101562 45.5 64 47.5 64 49.601562 L 64 64 L 78.601562 64 L 78.5 64 C 80.699219 64 82.699219 65.199219 83.699219 67 C 84.800781 68.898438 84.800781 71.101562 83.699219 72.898438 C 82.601562 74.898438 82 77.101562 82.101562 79.398438 C 82.300781 85.601562 87.300781 90.601562 93.5 90.898438 C 96.800781 91.101562 100 89.898438 102.398438 87.601562 C 104.800781 85.300781 106.101562 82.199219 106.101562 78.898438 C 106.101562 76.800781 105.5 74.699219 104.5 72.898438 C 103.398438 71.101562 103.398438 68.800781 104.5 67 C 105.601562 65.101562 107.601562 64 109.699219 64 L 121 64 L 121 114 C 121 117.898438 117.898438 121 114 121 L 64 121 L 64 109.601562 C 64 107.398438 62.800781 105.398438 61 104.398438 C 59.101562 103.300781 56.898438 103.300781 55.101562 104.398438 C 53.300781 105.5 51.199219 106 49.101562 106 C 45.800781 106 42.699219 104.699219 40.398438 102.300781 C 38.101562 99.898438 36.898438 96.800781 37.101562 93.398438 C 37.398438 87.199219 42.5 82.199219 48.601562 82 C 50.898438 81.898438 53.101562 82.5 55.101562 83.601562 C 56.898438 84.699219 59.199219 84.699219 61 83.601562 C 62.898438 82.5 64 80.5 64 78.398438 L 64 64 L 49.398438 64.101562 C 47.300781 64.101562 45.398438 62.898438 44.300781 61.101562 C 43.199219 59.199219 43.199219 57 44.300781 55.199219 C 45.398438 53.398438 45.898438 51.300781 45.898438 49.199219 C 45.898438 45.898438 44.601562 42.800781 42.199219 40.5 C 39.800781 38.199219 36.699219 37 33.300781 37.199219 C 27.101562 37.5 22.101562 42.601562 21.898438 48.699219 C 21.800781 51 22.398438 53.199219 23.5 55.199219 C 24.601562 57 24.601562 59.300781 23.5 61.101562 C 22.601562 62.699219 21 63.800781 19.101562 64.101562 L 4 64 C 2.300781 64 1 65.300781 1 67 L 1 114 C 1 121.199219 6.800781 127 14 127 L 114 127 C 121.199219 127 127 121.199219 127 114 L 127 14 C 127 6.800781 121.199219 1 114 1 Z M 114 1 "/>
</g>
</svg>
