<?xml version="1.0" standalone="no"?>
<!DOCTYPE svg PUBLIC "-//W3C//DTD SVG 20010904//EN"
 "http://www.w3.org/TR/2001/REC-SVG-20010904/DTD/svg10.dtd">
<svg version="1.0" xmlns="http://www.w3.org/2000/svg"
 width="700.000000pt" height="700.000000pt" viewBox="0 0 700.000000 700.000000"
 preserveAspectRatio="xMidYMid meet">
<metadata>
Created by potrace 1.14, written by Peter Selinger 2001-2017
</metadata>
<g transform="translate(0.000000,700.000000) scale(0.100000,-0.100000)"
fill="#000000" stroke="none">
<path d="M3624 6939 c-47 -9 -92 -48 -109 -93 -14 -36 -16 -102 -13 -486 l3
-445 27 -59 c34 -72 88 -125 160 -159 101 -48 192 -40 327 28 107 53 168 68
286 69 151 0 239 -24 363 -102 139 -86 236 -218 282 -383 27 -98 22 -273 -9
-367 -97 -285 -355 -466 -649 -456 -102 4 -167 22 -296 81 -88 41 -106 46
-170 46 -144 0 -262 -86 -309 -226 -14 -41 -16 -109 -17 -464 0 -229 -2 -418
-3 -420 -2 -1 -190 -4 -418 -6 -426 -3 -453 -1 -528 37 -45 24 -116 100 -142
154 -19 38 -23 64 -24 132 0 82 2 89 47 180 26 53 54 125 61 161 69 328 -96
639 -405 762 -80 32 -117 39 -228 41 -77 2 -132 -7 -238 -40 -137 -41 -300
-196 -368 -350 -84 -191 -76 -364 28 -588 38 -81 43 -99 43 -166 0 -61 -5 -86
-27 -132 -33 -72 -95 -133 -167 -167 l-56 -26 -446 3 -445 2 -44 -23 c-28 -15
-51 -36 -64 -62 -21 -40 -21 -43 -21 -1360 -1 -726 3 -1349 8 -1385 37 -292
267 -539 561 -602 80 -17 5648 -18 5739 -1 283 53 509 274 568 558 18 85 21
5628 3 5725 -30 162 -87 274 -199 385 -106 106 -219 166 -380 201 -38 8 -2691
12 -2731 3z m807 -3472 c66 -32 132 -99 162 -165 16 -35 22 -67 22 -128 0 -74
-3 -87 -42 -170 -105 -221 -109 -431 -11 -619 198 -381 723 -475 1029 -184
137 131 199 270 205 459 4 138 -8 194 -74 335 -44 93 -47 105 -47 180 0 69 4
89 29 138 35 68 98 130 164 160 45 21 63 22 398 25 l351 3 0 -1382 c0 -761 -4
-1403 -9 -1427 -26 -144 -141 -263 -283 -296 -43 -10 -353 -13 -1440 -13
l-1385 0 -1 331 c0 182 -3 342 -5 356 -9 49 -55 133 -93 170 -55 53 -137 90
-208 92 -80 2 -115 -7 -197 -50 -40 -20 -78 -39 -86 -41 -8 -2 -37 -10 -65
-18 -72 -21 -244 -20 -325 1 -135 37 -254 113 -343 221 -65 78 -99 146 -128
251 -40 146 -15 344 61 479 118 211 349 345 585 340 101 -3 178 -22 280 -70
114 -54 146 -63 218 -59 102 5 202 65 255 153 51 83 52 98 52 545 l0 417 438
-3 437 -3 56 -28z"/>
</g>
</svg>
